{
  "accessors": [
    {
      "bufferView": 0,
      "componentType": 5126,
      "count": 96,
      "max": [
        0.25999999046325684,
        1.7100000381469727,
        0.17000000178813934
      ],
      "min": [
        -0.25999999046325684,
        0.0,
        -0.17000000178813934
      ],
      "type": "VEC3"
    },
    {
      "bufferView": 1,
      "componentType": 5126,
      "count": 96,
      "type": "VEC3"
    },
    {
      "bufferView": 2,
      "componentType": 5126,
      "count": 96,
      "type": "VEC2"
    },
    {
      "bufferView": 3,
      "componentType": 5123,
      "count": 96,
      "type": "VEC4"
    },
    {
      "bufferView": 4,
      "componentType": 5126,
      "count": 96,
      "type": "VEC4"
    },
    {
      "bufferView": 5,
      "componentType": 5125,
      "count": 144,
      "type": "SCALAR"
    },
    {
      "bufferView": 6,
      "componentType": 5126,
      "count": 3,
      "type": "MAT4"
    },
    {
      "bufferView": 7,
      "componentType": 5126,
      "count": 5,
      "type": "SCALAR"
    },
    {
      "bufferView": 8,
      "componentType": 5126,
      "count": 5,
      "type": "VEC3"
    },
    {
      "bufferView": 9,
      "componentType": 5126,
      "count": 3,
      "type": "SCALAR"
    },
    {
      "bufferView": 10,
      "componentType": 5126,
      "count": 3,
      "type": "VEC4"
    },
    {
      "bufferView": 11,
      "componentType": 5126,
      "count": 3,
      "type": "SCALAR"
    },
    {
      "bufferView": 12,
      "componentType": 5126,
      "count": 3,
      "type": "VEC4"
    }
  ],
  "animations": [
    {
      "channels": [
        {
          "sampler": 0,
          "target": {
            "node": 0,
            "path": "translation"
          }
        },
        {
          "sampler": 1,
          "target": {
            "node": 1,
            "path": "rotation"
          }
        },
        {
          "sampler": 2,
          "target": {
            "node": 2,
            "path": "rotation"
          }
        }
      ],
      "extras": {
        "events": [
          {
            "name": "footstep",
            "time": 0.22499999403953552
          },
          {
            "name": "footstep",
            "time": 0.6749999523162842
          }
        ]
      },
      "name": "walk",
      "samplers": [
        {
          "input": 7,
          "interpolation": "LINEAR",
          "output": 8
        },
        {
          "input": 9,
          "interpolation": "LINEAR",
          "output": 10
        },
        {
          "input": 11,
          "interpolation": "LINEAR",
          "output": 12
        }
      ]
    }
  ],
  "asset": {
    "generator": "RustyEngine engine_asset::export_gltf",
    "version": "2.0"
  },
  "bufferViews": [
    {
      "buffer": 0,
      "byteLength": 1152,
      "byteOffset": 0,
      "target": 34962
    },
    {
      "buffer": 0,
      "byteLength": 1152,
      "byteOffset": 1152,
      "target": 34962
    },
    {
      "buffer": 0,
      "byteLength": 768,
      "byteOffset": 2304,
      "target": 34962
    },
    {
      "buffer": 0,
      "byteLength": 768,
      "byteOffset": 3072,
      "target": 34962
    },
    {
      "buffer": 0,
      "byteLength": 1536,
      "byteOffset": 3840,
      "target": 34962
    },
    {
      "buffer": 0,
      "byteLength": 576,
      "byteOffset": 5376,
      "target": 34963
    },
    {
      "buffer": 0,
      "byteLength": 192,
      "byteOffset": 5952
    },
    {
      "buffer": 0,
      "byteLength": 20,
      "byteOffset": 6144
    },
    {
      "buffer": 0,
      "byteLength": 60,
      "byteOffset": 6164
    },
    {
      "buffer": 0,
      "byteLength": 12,
      "byteOffset": 6224
    },
    {
      "buffer": 0,
      "byteLength": 48,
      "byteOffset": 6236
    },
    {
      "buffer": 0,
      "byteLength": 12,
      "byteOffset": 6284
    },
    {
      "buffer": 0,
      "byteLength": 48,
      "byteOffset": 6296
    }
  ],
  "buffers": [
    {
      "byteLength": 6344,
      "uri": "data:application/octet-stream;base64,"
    }
  ],
  "images": [
    {
      "name": "skin",
      "uri": "../textures/skin.png"
    }
  ],
  "materials": [
    {
      "alphaMode": "OPAQUE",
      "name": "skin",
      "pbrMetallicRoughness": {
        "baseColorFactor": [
          1.0,
          1.0,
          1.0,
          1.0
        ],
        "baseColorTexture": {
          "index": 0
        },
        "metallicFactor": 0.0,
        "roughnessFactor": 0.75
      }
    }
  ],
  "meshes": [
    {
      "name": "character",
      "primitives": [
        {
          "attributes": {
            "JOINTS_0": 3,
            "NORMAL": 1,
            "POSITION": 0,
            "TEXCOORD_0": 2,
            "WEIGHTS_0": 4
          },
          "indices": 5,
          "material": 0,
          "mode": 4
        }
      ]
    }
  ],
  "nodes": [
    {
      "children": [
        1,
        2
      ],
      "name": "body",
      "rotation": [
        0.0,
        0.0,
        0.0,
        1.0
      ],
      "scale": [
        1.0,
        1.0,
        1.0
      ],
      "translation": [
        0.0,
        0.8500000238418579,
        0.0
      ]
    },
    {
      "name": "leg_left",
      "rotation": [
        0.0,
        0.0,
        0.0,
        1.0
      ],
      "scale": [
        1.0,
        1.0,
        1.0
      ],
      "translation": [
        -0.1599999964237213,
        0.0,
        0.0
      ]
    },
    {
      "name": "leg_right",
      "rotation": [
        0.0,
        0.0,
        0.0,
        1.0
      ],
      "scale": [
        1.0,
        1.0,
        1.0
      ],
      "translation": [
        0.1599999964237213,
        0.0,
        0.0
      ]
    },
    {
      "mesh": 0,
      "name": "character",
      "skin": 0
    }
  ],
  "samplers": [
    {
      "magFilter": 9729,
      "minFilter": 9987,
      "wrapS": 10497,
      "wrapT": 10497
    }
  ],
  "scene": 0,
  "scenes": [
    {
      "nodes": [
        0,
        1,
        2,
        3
      ]
    }
  ],
  "skins": [
    {
      "inverseBindMatrices": 6,
      "joints": [
        0,
        1,
        2
      ],
      "name": "character"
    }
  ],
  "textures": [
    {
      "sampler": 0,
      "source": 0
    }
  ]
}